# xmcd
#
# Track frame offsets: 
#        150
#        12417
#        26435
#        38934
#        52107
#        65326
#        78477
#        89686
#        103188
#        116694
#        127655
#        140572
#        153279
#        165162
#        176579
#        188590
#        201958
#        212041
#        223894
#        236675
#        248650
#        262893
#        273894
#        283536
#        293171
#        303627
#        315868
#        328220
#
# Disc length: 4496 seconds
#
# Revision: 1
# Processed by: cddbd v1.5.2PL0 Copyright (c) Steve Scherf et al.
# Submitted via: ExactAudioCopy v0.99pb4
#
DISCID=93118e1c
DTITLE=Les Paul and Mary Ford - How High The Moon
DYEAR=2007
DGENRE=Country
TTITLE0=Pretending
TTITLE1=Got To Get Me Somebody To Love
TTITLE2=A One Sided Affair
TTITLE3=What Would It Take?
TTITLE4=Rumors Are Flying
TTITLE5=Steel Guitar Rag
TTITLE6=Guitar Boogie
TTITLE7=What Am I Gonna Do About You?
TTITLE8=Drifting And Dreaming (Sweet Paradise)
TTITLE9=What Are You Doing New Year's Eve?
TTITLE10=My Future Just Passed
TTITLE11=Lover
TTITLE12=Brazil
TTITLE13=Hip-Billy Boogie
TTITLE14=What Is This Thing Called Love
TTITLE15=Caravan
TTITLE16=Dry My Tears
TTITLE17=Nola
TTITLE18=Cryin´
TTITLE19=Goofus
TTITLE20=Tennessee Waltz
TTITLE21=Little Rock Getaway
TTITLE22=Chicken Reel
TTITLE23=How High The Moon
TTITLE24=Mockin' Bird Hill
TTITLE25=Walkin' ANd Whistlin' Blues
TTITLE26=I Wish I'd Never Seen Sunshine
TTITLE27=Josephine
EXTD=
EXTT0=
EXTT1=
EXTT2=
EXTT3=
EXTT4=
EXTT5=
EXTT6=
EXTT7=
EXTT8=
EXTT9=
EXTT10=
EXTT11=
EXTT12=
EXTT13=
EXTT14=
EXTT15=
EXTT16=
EXTT17=
EXTT18=
EXTT19=
EXTT20=
EXTT21=
EXTT22=
EXTT23=
EXTT24=
EXTT25=
EXTT26=
EXTT27=
PLAYORDER=
